<?xml version="1.0" encoding="UTF-8" standalone="no"?>
<!-- Created with Inkscape (http://www.inkscape.org/) -->

<svg
   xmlns:dc="http://purl.org/dc/elements/1.1/"
   xmlns:cc="http://creativecommons.org/ns#"
   xmlns:rdf="http://www.w3.org/1999/02/22-rdf-syntax-ns#"
   xmlns:svg="http://www.w3.org/2000/svg"
   xmlns="http://www.w3.org/2000/svg"
   xmlns:sodipodi="http://sodipodi.sourceforge.net/DTD/sodipodi-0.dtd"
   xmlns:inkscape="http://www.inkscape.org/namespaces/inkscape"
   width="512"
   height="512"
   viewBox="0 0 135.46666 135.46667"
   version="1.1"
   id="svg8"
   inkscape:version="0.92.0 r15299"
   sodipodi:docname="icon.svg">
  <defs
     id="defs2" />
  <sodipodi:namedview
     id="base"
     pagecolor="#ffffff"
     bordercolor="#666666"
     borderopacity="1.0"
     inkscape:pageopacity="0.0"
     inkscape:pageshadow="2"
     inkscape:zoom="2.814359"
     inkscape:cx="394.1368"
     inkscape:cy="250"
     inkscape:document-units="mm"
     inkscape:current-layer="layer1"
     showgrid="false"
     units="px"
     inkscape:window-width="3000"
     inkscape:window-height="1875"
     inkscape:window-x="-13"
     inkscape:window-y="-13"
     inkscape:window-maximized="1" />
  <metadata
     id="metadata5">
    <rdf:RDF>
      <cc:Work
         rdf:about="">
        <dc:format>image/svg+xml</dc:format>
        <dc:type
           rdf:resource="http://purl.org/dc/dcmitype/StillImage" />
        <dc:title></dc:title>
      </cc:Work>
    </rdf:RDF>
  </metadata>
  <g
     inkscape:label="Layer 1"
     inkscape:groupmode="layer"
     id="layer1"
     transform="translate(0,-161.53332)">
    <path
       style="fill:#000000;stroke-width:0.26458332"
       d="m 62.340328,291.74809 c 0.0758,-0.25466 0.63349,-2.66567 1.23922,-5.35781 0.60573,-2.69213 1.12874,-4.92612 1.16224,-4.96441 0.0335,-0.0383 0.49208,0.11054 1.01907,0.33073 1.2226,0.51083 2.8444,0.51083 4.067,0 0.52699,-0.22019 0.9842,-0.36902 1.01603,-0.33073 0.0979,0.11783 2.24213,10.12703 2.24213,10.46641 0,0.23839 -1.37304,0.31883 -5.44178,0.31883 -5.0588,0 -5.43209,-0.0326 -5.30391,-0.46302 z m -6.45222,-5.38063 c -4.36806,-3.64013 -8.8454,-6.33911 -13.28208,-8.00656 -4.03647,-1.51704 -11.81853,-3.12131 -20.78302,-4.28443 -1.92815,-0.25017 -3.50573,-0.53893 -3.50573,-0.64168 0,-0.51018 2.0296,-2.6844 3.62571,-3.88407 3.78046,-2.84147 6.56625,-3.90927 11.69451,-4.48255 1.97862,-0.22118 3.68478,-0.42552 3.79148,-0.45408 0.3211,-0.086 -8.81441,-7.29279 -11.88586,-9.37652 -5.24731,-3.55988 -10.42287,-5.72558 -15.8779403,-6.64409 -1.5715,-0.26461 -2.8572775,-0.55783 -2.8572775,-0.65161 0,-0.29033 5.1227178,-4.11299 8.5989578,-6.41669 5.58263,-3.6996 11.46064,-6.53557 17.81501,-8.59522 1.32229,-0.42859 2.59353,-0.77926 2.82497,-0.77926 0.30156,0 0.51385,0.45044 0.74912,1.58953 0.82853,4.01132 3.03778,9.19212 5.49387,12.88341 1.73674,2.61014 5.31268,6.45336 7.60967,8.17843 1.45948,1.09609 1.71192,1.43332 2.50585,3.34745 0.82701,1.99393 0.86239,2.20171 0.55919,3.28462 -0.18428,0.65817 -0.25588,1.72839 -0.16627,2.48504 0.17798,1.50276 1.97315,5.47523 3.79723,8.40277 1.20384,1.93208 1.73454,3.51604 2.61465,7.80382 0.41956,2.04403 0.41608,2.10762 -0.27821,5.09323 -0.38669,1.66285 -0.72372,3.0232 -0.74897,3.023 -0.0252,-2e-4 -1.05793,-0.84374 -2.29486,-1.87454 z m 21.31272,1.56615 c -0.50639,-1.50359 -1.20893,-5.80249 -1.07376,-6.57041 0.75362,-4.28129 1.55988,-6.83761 2.80803,-8.90302 1.96906,-3.25837 3.67812,-7.04455 3.85535,-8.541 0.0896,-0.75665 0.018,-1.82687 -0.16627,-2.48504 -0.30322,-1.083 -0.26775,-1.29118 0.56142,-3.29498 0.80611,-1.94805 1.03837,-2.25503 2.60265,-3.43991 2.36477,-1.7912 5.75746,-5.44075 7.51918,-8.08847 2.44772,-3.67869 4.657895,-8.86457 5.485315,-12.87055 0.25337,-1.2267 0.43611,-1.58953 0.80058,-1.58953 1.449657,0 9.141757,2.9771 13.727167,5.31288 4.77887,2.43433 15.71987,9.92953 15.32802,10.50056 -0.0728,0.10603 -1.35854,0.39926 -2.85729,0.65161 -5.2765,0.88845 -10.23243,2.96088 -15.45216,6.46169 -3.21396,2.15556 -12.525657,9.44552 -12.181477,9.53665 0.10788,0.0286 1.82056,0.23354 3.805957,0.45551 5.23863,0.58568 8.76113,1.99409 12.29885,4.91749 1.22134,1.00926 3.00903,3.05023 3.00903,3.43535 0,0.10277 -1.51804,0.3922 -3.37343,0.64318 -18.289872,2.47408 -24.843352,4.75416 -33.263382,11.57297 -3.40929,2.76094 -3.30119,2.6887 -3.43378,2.29502 z m -10.64718,-11.30378 c -3.14624,-2.27912 -8.24633,-9.8042 -8.94437,-13.19724 -0.16938,-0.82333 -0.12269,-0.88942 0.96973,-1.37265 3.26038,-1.44222 15.17032,-1.44222 18.4307,0 1.09241,0.48323 1.13911,0.54932 0.96973,1.37265 -0.48789,2.37152 -3.64285,7.68547 -6.37959,10.74523 -1.38623,1.54984 -3.35815,3.21663 -3.80549,3.21663 -0.10186,0 -0.66018,-0.34408 -1.24071,-0.76462 z m -3.03642,-20.79838 c -10.25057,-1.94654 -18.81994,-10.57732 -21.76807,-21.92404 -0.60264,-2.31943 -1.36563,-7.56964 -1.16714,-8.03119 0.0509,-0.11837 1.20131,-0.0945 2.55647,0.0531 l 2.46393,0.26829 0.65183,1.94229 c 1.66815,4.9707 3.21853,6.62897 6.9349,7.4175 2.78611,0.59115 6.44518,0.16795 8.76048,-1.01323 1.45106,-0.74028 3.05338,-2.68067 4.31339,-5.22348 0.7154,-1.44372 1.24046,-2.19704 1.53134,-2.19704 0.29088,0 0.81594,0.75332 1.53134,2.19704 1.90192,3.83825 3.61048,5.33704 6.99314,6.13455 4.32245,1.01908 8.99796,-0.0788 10.77338,-2.52967 0.83141,-1.14772 2.30608,-4.48259 2.57353,-5.81984 0.19589,-0.97942 0.13748,-0.95596 3.09191,-1.24165 l 2.34144,-0.22642 -0.18164,1.99977 c -1.06593,11.7353 -7.19403,21.43045 -16.40748,25.95797 -1.45521,0.7151 -3.59833,1.54821 -4.7625,1.85138 -2.79085,0.72676 -7.497,0.90374 -10.23025,0.3847 z m -7.36454,-33.73353 c -11.44264,-0.58292 -23.26674,-2.09903 -30.83216,-3.95335 -6.1877,-1.51663 -11.85362,-3.86582 -13.50931,-5.6012 l -0.76998,-0.80703 0.65893,-0.53623 c 2.88173,-2.34509 16.52139,-6.76873 25.93169,-8.4102 0.94589,-0.165 1.91891,-0.35844 2.16228,-0.42987 0.39843,-0.11695 0.42783,0.11591 0.29523,2.33853 l -0.14727,2.46841 1.34851,1.21243 c 4.25823,3.82852 12.71561,6.11306 23.99021,6.48035 12.83156,0.418 24.14045,-2.09565 28.97208,-6.4397 l 1.39372,-1.25308 -0.14727,-2.46841 c -0.1326,-2.22262 -0.1032,-2.45548 0.29523,-2.33853 0.24337,0.0714 1.21639,0.26487 2.162275,0.42987 9.410287,1.64147 23.049947,6.06511 25.931677,8.4102 l 0.65894,0.53623 -0.79375,0.83827 c -0.98664,1.04198 -5.26476,3.13518 -8.59896,4.2073 -7.1538,2.30032 -18.504312,4.13889 -31.220822,5.05718 -5.17608,0.37378 -22.37874,0.53405 -27.78125,0.25883 z m 5.1059,-12.17815 c -5.89513,-0.57229 -10.567,-1.71768 -13.95886,-3.42226 l -2.39183,-1.20202 0.0834,-1.32291 c 0.10472,-1.66081 0.51762,-4.39339 0.68988,-4.56566 0.0715,-0.0715 0.88153,0.17093 1.80012,0.53866 4.53791,1.81665 10.76717,3.21141 16.43871,3.6807 6.92403,0.57293 14.69575,-0.45019 21.73371,-2.86117 1.89177,-0.64806 3.64032,-1.24518 3.88566,-1.32694 0.5015,-0.16713 0.61887,0.26014 0.99123,3.60836 0.26087,2.34572 0.33817,2.24206 -2.77899,3.72658 -2.42113,1.15303 -6.09346,2.14925 -10.16769,2.75824 -3.31045,0.49482 -12.88313,0.72258 -16.32535,0.38842 z m 2.17014,-11.00192 c -5.07092,-0.74624 -6.70514,-1.05932 -9.1042,-1.74415 -2.70745,-0.77287 -7.36199,-2.47149 -7.7577,-2.83107 -0.2455,-0.22309 1.33893,-7.32009 2.59639,-11.62984 1.77028,-6.06731 3.69661,-10.76388 5.57499,-13.59233 1.59445,-2.40089 2.41764,-2.96676 4.00033,-2.74983 1.63403,0.22397 2.29802,0.91776 3.16963,3.31188 1.16778,3.20767 3.31565,5.05066 5.88619,5.05066 2.53203,0 4.36131,-1.52391 5.68609,-4.73689 0.50488,-1.22447 1.17463,-2.49952 1.48835,-2.83345 0.73694,-0.78444 2.65679,-1.10191 3.60362,-0.5959 1.53123,0.81832 4.11246,5.24863 5.87253,10.07936 1.99448,5.47408 5.04039,17.25971 4.57648,17.70789 -0.8234,0.7955 -8.42004,3.17722 -12.62171,3.95721 -2.81024,0.52168 -10.95831,0.90265 -12.97099,0.60646 z"
       id="path4537"
       inkscape:connector-curvature="0" />
  </g>
</svg>
